<html>
<head>
<meta charset="UTF-8">
<meta name="viewport" content="width=device-width, initial-scale=1.0"/>

<style>
.comment
{
    padding-left: 20px;
    margin-top: 4px;
    margin-right: 4px;
    margin-bottom: 4px;
    border: 2px #000 solid;
}
.submission
{
    border: 4px #00f solid;
    padding-left: 20px;
}
.hidden
{
    display: none;
}
</style>
</head>
<body><div class="submission" id="t3_67d4qp">
    <p class="userinfo">
        <a href="https://www.reddit.com/u/vcdupper">vcdupper</a>
        <span class="score"> | 27 points</span>
        <span class="timestamp"> | Apr 25 2017 00:24:43</span>
    </p>
    <strong>[MOVIE] Easy.Rider.1969.1080p.BluRay.10bit.DTS.5.1.x265-D0ct0rLew [6.91GB]</strong>
    <p><p>Add mega<br>
.nz/#!dqwlBSrY<br>
!Bz5ZKQX_pkfTmikhyG3XCb0qLMxYez88rjLMRFCvVdQ  </p>
<hr>
<h3><a href="https://youtu.be/ixZnhA7Wmq4">Unsure How To Download?</a>  &lt;------CLICK HERE!!!</h3>
<hr>
<p>SPECS:<br>
Format : Matroska<br>
Format version : Version 4 / Version 2<br>
File size : 6.91 GiB<br>
Duration : 1 h 35 min<br>
Overall bit rate : 10.3 Mb/s<br>
Encoded date : UTC 2016-08-17 22:37:12<br>
Writing application : mkvmerge v9.3.1 ('Mask Machine') 64bit<br>
Writing library : libebml v1.3.4 + libmatroska v1.4.5  </p>
<p>Video<br>
ID : 1<br>
Format : HEVC<br>
Format/Info : High Efficiency Video Coding<br>
Format profile : Main 10@L4@Main<br>
Codec ID : V_MPEGH/ISO/HEVC<br>
Duration : 1 h 35 min<br>
Bit rate : 8 432 kb/s<br>
Width : 1 920 pixels<br>
Height : 1 040 pixels<br>
Display aspect ratio : 1.85:1<br>
Frame rate mode : Constant<br>
Frame rate : 23.976 (24000/1001) FPS<br>
Color space : YUV<br>
Chroma subsampling : 4:2:0<br>
Bit depth : 10 bits<br>
Bits/(Pixel*Frame) : 0.176<br>
Stream size : 5.64 GiB (82%)<br>
Writing library : x265 2.0+8-669dc9bfe7eb:[Windows][GCC 6.1.0][64 bit] 10bit<br>
Language : English<br>
Default : Yes<br>
Forced : No  </p>
<p>Audio #1<br>
ID : 2<br>
Format : DTS<br>
Format/Info : Digital Theater Systems<br>
Mode : 16<br>
Format settings, Endianness : Big 
Codec ID : A_DTS<br>
Duration : 1 h 35 min<br>
Bit rate mode : Constant<br>
Bit rate : 1 509 kb/s<br>
Channel(s) : 6 channels<br>
Channel positions : Front: L C R, Side: L R, LFE<br>
Sampling rate : 48.0 kHz<br>
Frame rate : 93.750 FPS (512 spf)<br>
Bit depth : 24 bits<br>
Compression mode : Lossy<br>
Stream size : 1.01 GiB (15%)<br>
Language : English<br>
Default : Yes<br>
Forced : Yes  </p>
<p>Audio #2<br>
ID : 3<br>
Format : AAC<br>
Format/Info : Advanced Audio Codec<br>
Format profile : LC<br>
Codec ID : A_AAC<br>
Duration : 1 h 35 min<br>
Bit rate : 384 kb/s<br>
Channel(s) : 6 channels<br>
Channel positions : Front: L C R, Side: L R, LFE<br>
Sampling rate : 48.0 kHz<br>
Frame rate : 46.875 FPS (1024 spf)<br>
Compression mode : Lossy<br>
Delay relative to video : 9 ms<br>
Stream size : 263 MiB (4%)<br>
Language : English<br>
Default : No<br>
Forced : No  </p>
<p>Text<br>
ID : 4<br>
Format : VobSub<br>
Muxing mode : zlib<br>
Codec ID : S_VOBSUB<br>
Codec ID/Info : Picture based subtitle format used on DVDs<br>
Duration : 1 h 35 min<br>
Bit rate : 6 241 b/s<br>
Count of elements : 1154<br>
Stream size : 4.25 MiB (0%)<br>
Language : English<br>
Default : Yes<br>
Forced : No  </p></p>
    <p class="toolbar">
        <a href="https://www.reddit.com/r/megalinks/comments/67d4qp">permalink</a>
    </p>
</div>
<div class="comment" id="t1_dgq7is9">
    <p class="userinfo">
        <a
        class="toggle_hide_button"
        href="javascript:void(0)"
        onclick="toggle_collapse(this.parentElement.parentElement)">[-]
        </a>
        <a href="https://www.reddit.com/u/dosemeele">dosemeele</a>
        <span class="score"> | 3 points</span>
        <span class="timestamp"> | Apr 25 2017 13:57:22</span>
    </p>
    <div class="collapsible">
        <p>Thank you very much for the film and for putting the technical data!</p>
        <p class="toolbar">
            <a href="https://www.reddit.com/r/megalinks/comments/67d4qp/_/dgq7is9">permalink</a>
        </p>
        
    </div>
</div>

<div class="comment" id="t1_dgphs36">
    <p class="userinfo">
        <a
        class="toggle_hide_button"
        href="javascript:void(0)"
        onclick="toggle_collapse(this.parentElement.parentElement)">[-]
        </a>
        <a href="https://www.reddit.com/u/SubZorro">SubZorro</a>
        <span class="score"> | 2 points</span>
        <span class="timestamp"> | Apr 25 2017 00:28:04</span>
    </p>
    <div class="collapsible">
        <h5>Subtitles for this movie:</h5>
<hr>
<blockquote>
<ul>
<li>
<p><strong>Easy Rider</strong> - <code>1 CD</code> - <a href="http://dl.opensubtitles.org/en/download/vrf-4984f80f/sub/138815">Download Subtitle</a></p>
</li>
<li>
<p><strong>Easy.Rider.1969.720p.Bluray.x264.anoXmous</strong> - <code>1 CD</code> - <a href="http://dl.opensubtitles.org/en/download/vrf-f126fe94/sub/4855111">Download Subtitle</a></p>
</li>
<li>
<p><strong>Easy Rider (1969)</strong> - <code>1 CD</code> - <a href="http://dl.opensubtitles.org/en/download/vrf-d52bba5f/sub/5715002">Download Subtitle</a></p>
</li>
<li>
<p><strong>Easy.Rider.1969.DVDrip.WS.XviD.5ch.AC3-iAMi</strong> - <code>1 CD</code> - <a href="http://dl.opensubtitles.org/en/download/vrf-0b76cf55/sub/3167298">Download Subtitle</a></p>
</li>
</ul>
</blockquote>
<hr>
<p>^This ^list ^of ^subtitles ^are ^taken ^from <a href="http://www.opensubtitles.org">^opensubtitles.org</a> ^| ^For ^feedback ^or ^suggestions ^contact <a href="http://www.reddit.com/message/compose/?to=indigo6alpha">^/u/indigo6alpha</a></p>
        <p class="toolbar">
            <a href="https://www.reddit.com/r/megalinks/comments/67d4qp/_/dgphs36">permalink</a>
        </p>
        
    </div>
</div>

<div class="comment" id="t1_dgpw76e">
    <p class="userinfo">
        <a
        class="toggle_hide_button"
        href="javascript:void(0)"
        onclick="toggle_collapse(this.parentElement.parentElement)">[-]
        </a>
        <a href="https://www.reddit.com/u/PrimodialStrain">PrimodialStrain</a>
        <span class="score"> | 2 points</span>
        <span class="timestamp"> | Apr 25 2017 06:47:34</span>
    </p>
    <div class="collapsible">
        <p>Thank you </p>
        <p class="toolbar">
            <a href="https://www.reddit.com/r/megalinks/comments/67d4qp/_/dgpw76e">permalink</a>
        </p>
        
    </div>
</div>

<div class="comment" id="t1_dhjel41">
    <p class="userinfo">
        <a
        class="toggle_hide_button"
        href="javascript:void(0)"
        onclick="toggle_collapse(this.parentElement.parentElement)">[-]
        </a>
        [deleted]
        <span class="score"> | 1 points</span>
        <span class="timestamp"> | May 14 2017 09:57:20</span>
    </p>
    <div class="collapsible">
        <p>Great upload been looking for this movie</p>
        <p class="toolbar">
            <a href="https://www.reddit.com/r/megalinks/comments/67d4qp/_/dhjel41">permalink</a>
        </p>
        
    </div>
</div>
</body>

<script>
function toggle_collapse(comment_div)
{
    var button = comment_div.getElementsByClassName("toggle_hide_button")[0];
    var collapsible = comment_div.getElementsByClassName("collapsible")[0];
    if (collapsible.classList.contains("hidden"))
    {
        collapsible.classList.remove("hidden");
        button.innerText = "[-]";
    }
    else
    {
        collapsible.classList.add("hidden");
        button.innerText = "[+]";
    }
}
</script>
</html>
